<mxfile host="app.diagrams.net" modified="2023-01-27T21:11:56.441Z" agent="5.0 (Macintosh; Intel Mac OS X 10_15_7) AppleWebKit/537.36 (KHTML, like Gecko) Chrome/109.0.0.0 Safari/537.36" etag="_3SL8jYPqB27QObZd2PG" version="20.8.10" type="github">
  <diagram name="Page-1" id="13e1069c-82ec-6db2-03f1-153e76fe0fe0">
    <mxGraphModel dx="682" dy="559" grid="1" gridSize="10" guides="1" tooltips="1" connect="1" arrows="1" fold="1" page="1" pageScale="1" pageWidth="1100" pageHeight="850" background="none" math="0" shadow="0">
      <root>
        <mxCell id="0" />
        <mxCell id="1" parent="0" />
        <mxCell id="7baba1c4bc27f4b0-2" value="&lt;h2&gt;&lt;font style=&quot;font-size: 14px;&quot;&gt;Server&lt;/font&gt;&lt;/h2&gt;" style="shape=umlLifeline;perimeter=lifelinePerimeter;whiteSpace=wrap;html=1;container=1;collapsible=0;recursiveResize=0;outlineConnect=0;rounded=1;shadow=0;comic=0;labelBackgroundColor=none;strokeWidth=1;fontFamily=Verdana;fontSize=12;align=center;" parent="1" vertex="1">
          <mxGeometry x="240" y="80" width="100" height="730" as="geometry" />
        </mxCell>
        <mxCell id="7baba1c4bc27f4b0-10" value="" style="html=1;points=[];perimeter=orthogonalPerimeter;rounded=0;shadow=0;comic=0;labelBackgroundColor=none;strokeWidth=1;fontFamily=Verdana;fontSize=12;align=center;" parent="7baba1c4bc27f4b0-2" vertex="1">
          <mxGeometry x="45" y="100" width="10" height="50" as="geometry" />
        </mxCell>
        <mxCell id="nqhLTHvcU0vgmD6jR3Rw-3" value="dispatch" style="html=1;verticalAlign=bottom;endArrow=block;entryX=0;entryY=0;labelBackgroundColor=none;fontFamily=Verdana;fontSize=12;edgeStyle=elbowEdgeStyle;elbow=vertical;" edge="1" parent="7baba1c4bc27f4b0-2">
          <mxGeometry relative="1" as="geometry">
            <mxPoint x="55" y="207" as="sourcePoint" />
            <mxPoint x="205" y="207.00000000000023" as="targetPoint" />
          </mxGeometry>
        </mxCell>
        <mxCell id="nqhLTHvcU0vgmD6jR3Rw-4" value="Failed" style="html=1;verticalAlign=bottom;endArrow=open;dashed=1;endSize=8;labelBackgroundColor=none;fontFamily=Verdana;fontSize=12;edgeStyle=elbowEdgeStyle;elbow=vertical;" edge="1" parent="7baba1c4bc27f4b0-2">
          <mxGeometry relative="1" as="geometry">
            <mxPoint x="-85" y="229" as="targetPoint" />
            <Array as="points">
              <mxPoint x="-10" y="229" />
              <mxPoint x="20" y="229" />
            </Array>
            <mxPoint x="45" y="229" as="sourcePoint" />
          </mxGeometry>
        </mxCell>
        <mxCell id="nqhLTHvcU0vgmD6jR3Rw-5" value="Course Search" style="html=1;verticalAlign=bottom;endArrow=block;entryX=0;entryY=0;labelBackgroundColor=none;fontFamily=Verdana;fontSize=12;edgeStyle=elbowEdgeStyle;elbow=vertical;" edge="1" parent="7baba1c4bc27f4b0-2">
          <mxGeometry relative="1" as="geometry">
            <mxPoint x="-85" y="295" as="sourcePoint" />
            <mxPoint x="45" y="295" as="targetPoint" />
          </mxGeometry>
        </mxCell>
        <mxCell id="nqhLTHvcU0vgmD6jR3Rw-9" value="" style="html=1;points=[];perimeter=orthogonalPerimeter;rounded=0;shadow=0;comic=0;labelBackgroundColor=none;strokeWidth=1;fontFamily=Verdana;fontSize=12;align=center;" vertex="1" parent="7baba1c4bc27f4b0-2">
          <mxGeometry x="45" y="370" width="10" height="70" as="geometry" />
        </mxCell>
        <mxCell id="nqhLTHvcU0vgmD6jR3Rw-12" value="" style="html=1;points=[];perimeter=orthogonalPerimeter;rounded=0;shadow=0;comic=0;labelBackgroundColor=none;strokeWidth=1;fontFamily=Verdana;fontSize=12;align=center;" vertex="1" parent="7baba1c4bc27f4b0-2">
          <mxGeometry x="45" y="180" width="10" height="60" as="geometry" />
        </mxCell>
        <mxCell id="nqhLTHvcU0vgmD6jR3Rw-14" value="" style="html=1;points=[];perimeter=orthogonalPerimeter;rounded=0;shadow=0;comic=0;labelBackgroundColor=none;strokeWidth=1;fontFamily=Verdana;fontSize=12;align=center;" vertex="1" parent="7baba1c4bc27f4b0-2">
          <mxGeometry x="45" y="270" width="10" height="50" as="geometry" />
        </mxCell>
        <mxCell id="nqhLTHvcU0vgmD6jR3Rw-15" value="dispatch" style="html=1;verticalAlign=bottom;endArrow=block;labelBackgroundColor=none;fontFamily=Verdana;fontSize=12;elbow=vertical;edgeStyle=orthogonalEdgeStyle;curved=1;exitX=1.066;exitY=0.713;exitPerimeter=0;" edge="1" parent="7baba1c4bc27f4b0-2">
          <mxGeometry relative="1" as="geometry">
            <mxPoint x="53.66000000000008" y="120.00999999999996" as="sourcePoint" />
            <mxPoint x="50" y="140" as="targetPoint" />
            <Array as="points">
              <mxPoint x="70" y="120" />
              <mxPoint x="70" y="140" />
            </Array>
          </mxGeometry>
        </mxCell>
        <mxCell id="nqhLTHvcU0vgmD6jR3Rw-17" value="" style="html=1;points=[];perimeter=orthogonalPerimeter;rounded=0;shadow=0;comic=0;labelBackgroundColor=none;strokeWidth=1;fontFamily=Verdana;fontSize=12;align=center;" vertex="1" parent="7baba1c4bc27f4b0-2">
          <mxGeometry x="45" y="488" width="10" height="242" as="geometry" />
        </mxCell>
        <mxCell id="nqhLTHvcU0vgmD6jR3Rw-31" value="payment dispatch" style="html=1;verticalAlign=bottom;endArrow=block;labelBackgroundColor=none;fontFamily=Verdana;fontSize=12;edgeStyle=elbowEdgeStyle;elbow=vertical;entryX=-0.5;entryY=0.425;entryDx=0;entryDy=0;entryPerimeter=0;" edge="1" parent="7baba1c4bc27f4b0-2">
          <mxGeometry relative="1" as="geometry">
            <mxPoint x="-83" y="580" as="sourcePoint" />
            <mxPoint x="342" y="578.5" as="targetPoint" />
          </mxGeometry>
        </mxCell>
        <mxCell id="nqhLTHvcU0vgmD6jR3Rw-33" value="Payment success" style="html=1;verticalAlign=bottom;endArrow=open;endSize=8;labelBackgroundColor=none;fontFamily=Verdana;fontSize=12;edgeStyle=elbowEdgeStyle;elbow=vertical;exitX=0.5;exitY=0.75;exitDx=0;exitDy=0;exitPerimeter=0;" edge="1" parent="7baba1c4bc27f4b0-2">
          <mxGeometry relative="1" as="geometry">
            <mxPoint x="-81" y="636.2" as="targetPoint" />
            <Array as="points">
              <mxPoint x="263" y="636" />
              <mxPoint x="293" y="636" />
            </Array>
            <mxPoint x="343" y="636" as="sourcePoint" />
          </mxGeometry>
        </mxCell>
        <mxCell id="7baba1c4bc27f4b0-3" value="&lt;h1&gt;&lt;font style=&quot;font-size: 14px;&quot;&gt;Data Base&lt;/font&gt;&lt;/h1&gt;" style="shape=umlLifeline;perimeter=lifelinePerimeter;whiteSpace=wrap;html=1;container=1;collapsible=0;recursiveResize=0;outlineConnect=0;rounded=1;shadow=0;comic=0;labelBackgroundColor=none;strokeWidth=1;fontFamily=Verdana;fontSize=12;align=center;" parent="1" vertex="1">
          <mxGeometry x="400" y="80" width="100" height="1060" as="geometry" />
        </mxCell>
        <mxCell id="7baba1c4bc27f4b0-13" value="" style="html=1;points=[];perimeter=orthogonalPerimeter;rounded=0;shadow=0;comic=0;labelBackgroundColor=none;strokeWidth=1;fontFamily=Verdana;fontSize=12;align=center;" parent="7baba1c4bc27f4b0-3" vertex="1">
          <mxGeometry x="45" y="120" width="10" height="430" as="geometry" />
        </mxCell>
        <mxCell id="nqhLTHvcU0vgmD6jR3Rw-23" value="dispatch" style="html=1;verticalAlign=bottom;endArrow=block;labelBackgroundColor=none;fontFamily=Verdana;fontSize=12;edgeStyle=elbowEdgeStyle;elbow=vertical;entryX=-0.4;entryY=0.173;entryDx=0;entryDy=0;entryPerimeter=0;" edge="1" parent="7baba1c4bc27f4b0-3">
          <mxGeometry relative="1" as="geometry">
            <mxPoint x="-103" y="407.4" as="sourcePoint" />
            <mxPoint x="183" y="407" as="targetPoint" />
          </mxGeometry>
        </mxCell>
        <mxCell id="nqhLTHvcU0vgmD6jR3Rw-24" value="dispatch" style="html=1;verticalAlign=bottom;endArrow=block;labelBackgroundColor=none;fontFamily=Verdana;fontSize=12;edgeStyle=elbowEdgeStyle;elbow=vertical;entryX=-0.4;entryY=0.173;entryDx=0;entryDy=0;entryPerimeter=0;" edge="1" parent="7baba1c4bc27f4b0-3">
          <mxGeometry relative="1" as="geometry">
            <mxPoint x="-102" y="307.4000000000001" as="sourcePoint" />
            <mxPoint x="184" y="307" as="targetPoint" />
          </mxGeometry>
        </mxCell>
        <mxCell id="nqhLTHvcU0vgmD6jR3Rw-32" value="failed to process&amp;nbsp;" style="html=1;verticalAlign=bottom;endArrow=open;endSize=8;labelBackgroundColor=none;fontFamily=Verdana;fontSize=12;edgeStyle=elbowEdgeStyle;elbow=vertical;exitX=0.5;exitY=0.75;exitDx=0;exitDy=0;exitPerimeter=0;" edge="1" parent="7baba1c4bc27f4b0-3">
          <mxGeometry relative="1" as="geometry">
            <mxPoint x="-241" y="610.2" as="targetPoint" />
            <Array as="points">
              <mxPoint x="103" y="610" />
              <mxPoint x="133" y="610" />
            </Array>
            <mxPoint x="183" y="610" as="sourcePoint" />
          </mxGeometry>
        </mxCell>
        <mxCell id="nqhLTHvcU0vgmD6jR3Rw-40" value="" style="html=1;points=[];perimeter=orthogonalPerimeter;rounded=0;shadow=0;comic=0;labelBackgroundColor=none;strokeWidth=1;fontFamily=Verdana;fontSize=12;align=center;" vertex="1" parent="7baba1c4bc27f4b0-3">
          <mxGeometry x="45" y="700" width="10" height="360" as="geometry" />
        </mxCell>
        <mxCell id="7baba1c4bc27f4b0-4" value="&lt;h1&gt;&lt;font style=&quot;font-size: 12px;&quot;&gt;External API&lt;/font&gt;&lt;/h1&gt;" style="shape=umlLifeline;perimeter=lifelinePerimeter;whiteSpace=wrap;html=1;container=1;collapsible=0;recursiveResize=0;outlineConnect=0;rounded=1;shadow=0;comic=0;labelBackgroundColor=none;strokeWidth=1;fontFamily=Verdana;fontSize=12;align=center;" parent="1" vertex="1">
          <mxGeometry x="540" y="80" width="100" height="580" as="geometry" />
        </mxCell>
        <mxCell id="7baba1c4bc27f4b0-8" value="" style="shape=umlLifeline;perimeter=lifelinePerimeter;whiteSpace=wrap;html=1;container=1;collapsible=0;recursiveResize=0;outlineConnect=0;rounded=1;shadow=0;comic=0;labelBackgroundColor=none;strokeWidth=1;fontFamily=Verdana;fontSize=12;align=center;size=40;" parent="1" vertex="1">
          <mxGeometry x="100" y="80" width="100" height="1060" as="geometry" />
        </mxCell>
        <mxCell id="7baba1c4bc27f4b0-9" value="" style="html=1;points=[];perimeter=orthogonalPerimeter;rounded=0;shadow=0;comic=0;labelBackgroundColor=none;strokeWidth=1;fontFamily=Verdana;fontSize=12;align=center;" parent="7baba1c4bc27f4b0-8" vertex="1">
          <mxGeometry x="45" y="100" width="10" height="960" as="geometry" />
        </mxCell>
        <mxCell id="ASSOR7wzmseTGVq8auo1-13" value="Failed" style="html=1;verticalAlign=bottom;endArrow=open;dashed=1;endSize=8;labelBackgroundColor=none;fontFamily=Verdana;fontSize=12;edgeStyle=elbowEdgeStyle;elbow=vertical;" parent="7baba1c4bc27f4b0-8" edge="1">
          <mxGeometry relative="1" as="geometry">
            <mxPoint x="55" y="140" as="targetPoint" />
            <Array as="points">
              <mxPoint x="130" y="140" />
              <mxPoint x="160" y="140" />
            </Array>
            <mxPoint x="185" y="140" as="sourcePoint" />
          </mxGeometry>
        </mxCell>
        <mxCell id="nqhLTHvcU0vgmD6jR3Rw-2" value="Sign In" style="html=1;verticalAlign=bottom;endArrow=block;entryX=0;entryY=0;labelBackgroundColor=none;fontFamily=Verdana;fontSize=12;edgeStyle=elbowEdgeStyle;elbow=vertical;" edge="1" parent="7baba1c4bc27f4b0-8">
          <mxGeometry relative="1" as="geometry">
            <mxPoint x="55" y="195" as="sourcePoint" />
            <mxPoint x="185" y="195" as="targetPoint" />
          </mxGeometry>
        </mxCell>
        <mxCell id="ASSOR7wzmseTGVq8auo1-1" value="User" style="shape=umlActor;verticalLabelPosition=bottom;verticalAlign=top;html=1;outlineConnect=0;" parent="7baba1c4bc27f4b0-8" vertex="1">
          <mxGeometry x="39" y="5" width="20" height="30" as="geometry" />
        </mxCell>
        <mxCell id="nqhLTHvcU0vgmD6jR3Rw-18" value="open selected course" style="html=1;verticalAlign=bottom;endArrow=block;entryX=0;entryY=0;labelBackgroundColor=none;fontFamily=Verdana;fontSize=12;edgeStyle=elbowEdgeStyle;elbow=vertical;" edge="1" parent="7baba1c4bc27f4b0-8">
          <mxGeometry relative="1" as="geometry">
            <mxPoint x="55" y="393" as="sourcePoint" />
            <mxPoint x="185" y="393" as="targetPoint" />
          </mxGeometry>
        </mxCell>
        <mxCell id="7baba1c4bc27f4b0-16" value="" style="html=1;points=[];perimeter=orthogonalPerimeter;rounded=0;shadow=0;comic=0;labelBackgroundColor=none;strokeWidth=1;fontFamily=Verdana;fontSize=12;align=center;" parent="1" vertex="1">
          <mxGeometry x="585" y="350" width="10" height="230" as="geometry" />
        </mxCell>
        <mxCell id="7baba1c4bc27f4b0-22" value="" style="html=1;points=[];perimeter=orthogonalPerimeter;rounded=0;shadow=0;comic=0;labelBackgroundColor=none;strokeWidth=1;fontFamily=Verdana;fontSize=12;align=center;" parent="1" vertex="1">
          <mxGeometry x="585" y="599" width="10" height="140" as="geometry" />
        </mxCell>
        <mxCell id="7baba1c4bc27f4b0-11" value="Sign Up" style="html=1;verticalAlign=bottom;endArrow=block;entryX=0;entryY=0;labelBackgroundColor=none;fontFamily=Verdana;fontSize=12;edgeStyle=elbowEdgeStyle;elbow=vertical;" parent="1" source="7baba1c4bc27f4b0-9" target="7baba1c4bc27f4b0-10" edge="1">
          <mxGeometry relative="1" as="geometry">
            <mxPoint x="220" y="190" as="sourcePoint" />
          </mxGeometry>
        </mxCell>
        <mxCell id="7baba1c4bc27f4b0-14" value="dispatch" style="html=1;verticalAlign=bottom;endArrow=block;entryX=0;entryY=0;labelBackgroundColor=none;fontFamily=Verdana;fontSize=12;edgeStyle=elbowEdgeStyle;elbow=vertical;" parent="1" source="7baba1c4bc27f4b0-10" target="7baba1c4bc27f4b0-13" edge="1">
          <mxGeometry relative="1" as="geometry">
            <mxPoint x="370" y="200" as="sourcePoint" />
          </mxGeometry>
        </mxCell>
        <mxCell id="7baba1c4bc27f4b0-40" value="Multiverse&amp;nbsp;&lt;br&gt;student&amp;nbsp;" style="shape=note;whiteSpace=wrap;html=1;size=14;verticalAlign=top;align=left;spacingTop=-6;rounded=0;shadow=0;comic=0;labelBackgroundColor=none;strokeWidth=1;fontFamily=Verdana;fontSize=12" parent="1" vertex="1">
          <mxGeometry x="100" y="30" width="100" height="35" as="geometry" />
        </mxCell>
        <mxCell id="7baba1c4bc27f4b0-41" value="Express server" style="shape=note;whiteSpace=wrap;html=1;size=14;verticalAlign=top;align=left;spacingTop=-6;rounded=0;shadow=0;comic=0;labelBackgroundColor=none;strokeWidth=1;fontFamily=Verdana;fontSize=12" parent="1" vertex="1">
          <mxGeometry x="240" y="30" width="100" height="35" as="geometry" />
        </mxCell>
        <mxCell id="7baba1c4bc27f4b0-42" value="MySQL" style="shape=note;whiteSpace=wrap;html=1;size=14;verticalAlign=top;align=left;spacingTop=-6;rounded=0;shadow=0;comic=0;labelBackgroundColor=none;strokeWidth=1;fontFamily=Verdana;fontSize=12" parent="1" vertex="1">
          <mxGeometry x="400" y="30" width="100" height="35" as="geometry" />
        </mxCell>
        <mxCell id="7baba1c4bc27f4b0-43" value="Youtube api" style="shape=note;whiteSpace=wrap;html=1;size=14;verticalAlign=top;align=left;spacingTop=-6;rounded=0;shadow=0;comic=0;labelBackgroundColor=none;strokeWidth=1;fontFamily=Verdana;fontSize=12" parent="1" vertex="1">
          <mxGeometry x="540" y="30" width="100" height="35" as="geometry" />
        </mxCell>
        <mxCell id="nqhLTHvcU0vgmD6jR3Rw-11" value="return access token&amp;nbsp;" style="html=1;verticalAlign=bottom;endArrow=open;endSize=8;labelBackgroundColor=none;fontFamily=Verdana;fontSize=12;edgeStyle=elbowEdgeStyle;elbow=vertical;exitX=0.5;exitY=0.75;exitDx=0;exitDy=0;exitPerimeter=0;entryX=1.1;entryY=0.405;entryDx=0;entryDy=0;entryPerimeter=0;" edge="1" parent="1">
          <mxGeometry relative="1" as="geometry">
            <mxPoint x="151" y="248" as="targetPoint" />
            <Array as="points">
              <mxPoint x="365" y="248.8" />
              <mxPoint x="395" y="248.8" />
            </Array>
            <mxPoint x="445" y="248.79999999999995" as="sourcePoint" />
          </mxGeometry>
        </mxCell>
        <mxCell id="nqhLTHvcU0vgmD6jR3Rw-13" value="return access token&amp;nbsp;" style="html=1;verticalAlign=bottom;endArrow=open;endSize=8;labelBackgroundColor=none;fontFamily=Verdana;fontSize=12;edgeStyle=elbowEdgeStyle;elbow=vertical;exitX=0.5;exitY=0.75;exitDx=0;exitDy=0;exitPerimeter=0;entryX=1.1;entryY=0.405;entryDx=0;entryDy=0;entryPerimeter=0;" edge="1" parent="1">
          <mxGeometry x="-0.0027" relative="1" as="geometry">
            <mxPoint x="154" y="336" as="targetPoint" />
            <Array as="points">
              <mxPoint x="368" y="336.8" />
              <mxPoint x="398" y="336.8" />
            </Array>
            <mxPoint x="448" y="336.79999999999995" as="sourcePoint" />
            <mxPoint as="offset" />
          </mxGeometry>
        </mxCell>
        <mxCell id="nqhLTHvcU0vgmD6jR3Rw-16" value="dispatch" style="html=1;verticalAlign=bottom;endArrow=block;labelBackgroundColor=none;fontFamily=Verdana;fontSize=12;elbow=vertical;edgeStyle=orthogonalEdgeStyle;curved=1;exitX=1.066;exitY=0.713;exitPerimeter=0;" edge="1" parent="1">
          <mxGeometry relative="1" as="geometry">
            <mxPoint x="303.6600000000001" y="288.01" as="sourcePoint" />
            <mxPoint x="300" y="308" as="targetPoint" />
            <Array as="points">
              <mxPoint x="320" y="288" />
              <mxPoint x="320" y="308" />
            </Array>
          </mxGeometry>
        </mxCell>
        <mxCell id="nqhLTHvcU0vgmD6jR3Rw-21" value="return no data" style="html=1;verticalAlign=bottom;endArrow=open;endSize=8;labelBackgroundColor=none;fontFamily=Verdana;fontSize=12;edgeStyle=elbowEdgeStyle;elbow=vertical;entryX=1.1;entryY=0.405;entryDx=0;entryDy=0;entryPerimeter=0;" edge="1" parent="1">
          <mxGeometry relative="1" as="geometry">
            <mxPoint x="156" y="558" as="targetPoint" />
            <Array as="points">
              <mxPoint x="370" y="558.8" />
              <mxPoint x="400" y="558.8" />
            </Array>
            <mxPoint x="583" y="558" as="sourcePoint" />
          </mxGeometry>
        </mxCell>
        <mxCell id="nqhLTHvcU0vgmD6jR3Rw-25" value="return data&amp;nbsp;" style="html=1;verticalAlign=bottom;endArrow=open;endSize=8;labelBackgroundColor=none;fontFamily=Verdana;fontSize=12;edgeStyle=elbowEdgeStyle;elbow=vertical;exitX=0.5;exitY=0.75;exitDx=0;exitDy=0;exitPerimeter=0;" edge="1" parent="1">
          <mxGeometry relative="1" as="geometry">
            <mxPoint x="158" y="531" as="targetPoint" />
            <Array as="points">
              <mxPoint x="502" y="530.8" />
              <mxPoint x="532" y="530.8" />
            </Array>
            <mxPoint x="582" y="530.8" as="sourcePoint" />
          </mxGeometry>
        </mxCell>
        <mxCell id="nqhLTHvcU0vgmD6jR3Rw-26" value="return no data" style="html=1;verticalAlign=bottom;endArrow=open;endSize=8;labelBackgroundColor=none;fontFamily=Verdana;fontSize=12;edgeStyle=elbowEdgeStyle;elbow=vertical;entryX=1.1;entryY=0.405;entryDx=0;entryDy=0;entryPerimeter=0;" edge="1" parent="1">
          <mxGeometry relative="1" as="geometry">
            <mxPoint x="156" y="442" as="targetPoint" />
            <Array as="points">
              <mxPoint x="370" y="442.79999999999995" />
              <mxPoint x="400" y="442.79999999999995" />
            </Array>
            <mxPoint x="583" y="442" as="sourcePoint" />
          </mxGeometry>
        </mxCell>
        <mxCell id="nqhLTHvcU0vgmD6jR3Rw-27" value="return data&amp;nbsp;" style="html=1;verticalAlign=bottom;endArrow=open;endSize=8;labelBackgroundColor=none;fontFamily=Verdana;fontSize=12;edgeStyle=elbowEdgeStyle;elbow=vertical;exitX=0.5;exitY=0.75;exitDx=0;exitDy=0;exitPerimeter=0;" edge="1" parent="1">
          <mxGeometry relative="1" as="geometry">
            <mxPoint x="158" y="415" as="targetPoint" />
            <Array as="points">
              <mxPoint x="502" y="414.79999999999995" />
              <mxPoint x="532" y="414.79999999999995" />
            </Array>
            <mxPoint x="582" y="414.79999999999995" as="sourcePoint" />
          </mxGeometry>
        </mxCell>
        <mxCell id="nqhLTHvcU0vgmD6jR3Rw-28" value="Enroll" style="html=1;verticalAlign=bottom;endArrow=block;entryX=0;entryY=0;labelBackgroundColor=none;fontFamily=Verdana;fontSize=12;edgeStyle=elbowEdgeStyle;elbow=vertical;" edge="1" parent="1">
          <mxGeometry relative="1" as="geometry">
            <mxPoint x="155" y="590" as="sourcePoint" />
            <mxPoint x="285" y="590" as="targetPoint" />
          </mxGeometry>
        </mxCell>
        <mxCell id="nqhLTHvcU0vgmD6jR3Rw-30" value="pay for the course&amp;nbsp;" style="html=1;verticalAlign=bottom;endArrow=open;endSize=8;labelBackgroundColor=none;fontFamily=Verdana;fontSize=12;edgeStyle=elbowEdgeStyle;elbow=vertical;entryX=1.1;entryY=0.405;entryDx=0;entryDy=0;entryPerimeter=0;" edge="1" parent="1">
          <mxGeometry relative="1" as="geometry">
            <mxPoint x="157" y="629" as="targetPoint" />
            <Array as="points">
              <mxPoint x="371" y="629.8" />
              <mxPoint x="401" y="629.8" />
            </Array>
            <mxPoint x="282" y="629" as="sourcePoint" />
          </mxGeometry>
        </mxCell>
        <mxCell id="nqhLTHvcU0vgmD6jR3Rw-34" value="" style="html=1;points=[];perimeter=orthogonalPerimeter;rounded=0;shadow=0;comic=0;labelBackgroundColor=none;strokeWidth=1;fontFamily=Verdana;fontSize=12;align=center;" vertex="1" parent="1">
          <mxGeometry x="285" y="842" width="10" height="71" as="geometry" />
        </mxCell>
        <mxCell id="nqhLTHvcU0vgmD6jR3Rw-36" value="Access course&amp;nbsp;" style="html=1;verticalAlign=bottom;endArrow=open;endSize=8;labelBackgroundColor=none;fontFamily=Verdana;fontSize=12;edgeStyle=elbowEdgeStyle;elbow=vertical;entryX=1.1;entryY=0.405;entryDx=0;entryDy=0;entryPerimeter=0;" edge="1" parent="1">
          <mxGeometry relative="1" as="geometry">
            <mxPoint x="157" y="742" as="targetPoint" />
            <Array as="points">
              <mxPoint x="371" y="742.8" />
              <mxPoint x="401" y="742.8" />
            </Array>
            <mxPoint x="282" y="742" as="sourcePoint" />
          </mxGeometry>
        </mxCell>
        <mxCell id="nqhLTHvcU0vgmD6jR3Rw-37" value="course engagement&amp;nbsp;" style="html=1;verticalAlign=bottom;endArrow=block;entryX=0;entryY=0;labelBackgroundColor=none;fontFamily=Verdana;fontSize=12;edgeStyle=elbowEdgeStyle;elbow=vertical;" edge="1" parent="1">
          <mxGeometry relative="1" as="geometry">
            <mxPoint x="155" y="772" as="sourcePoint" />
            <mxPoint x="285" y="772" as="targetPoint" />
          </mxGeometry>
        </mxCell>
        <mxCell id="nqhLTHvcU0vgmD6jR3Rw-38" value="dispatch" style="html=1;verticalAlign=bottom;endArrow=block;entryX=0;entryY=0;labelBackgroundColor=none;fontFamily=Verdana;fontSize=12;edgeStyle=elbowEdgeStyle;elbow=vertical;" edge="1" parent="1">
          <mxGeometry relative="1" as="geometry">
            <mxPoint x="296" y="798" as="sourcePoint" />
            <mxPoint x="446" y="798.0000000000002" as="targetPoint" />
          </mxGeometry>
        </mxCell>
        <mxCell id="nqhLTHvcU0vgmD6jR3Rw-39" value="show reaction&amp;nbsp;" style="html=1;verticalAlign=bottom;endArrow=open;endSize=8;labelBackgroundColor=none;fontFamily=Verdana;fontSize=12;edgeStyle=elbowEdgeStyle;elbow=vertical;entryX=1.1;entryY=0.405;entryDx=0;entryDy=0;entryPerimeter=0;" edge="1" parent="1">
          <mxGeometry x="-0.0027" relative="1" as="geometry">
            <mxPoint x="154" y="831" as="targetPoint" />
            <Array as="points">
              <mxPoint x="368" y="831.8" />
              <mxPoint x="398" y="831.8" />
            </Array>
            <mxPoint x="448" y="831" as="sourcePoint" />
            <mxPoint as="offset" />
          </mxGeometry>
        </mxCell>
        <mxCell id="nqhLTHvcU0vgmD6jR3Rw-41" value="edit profile/setting" style="html=1;verticalAlign=bottom;endArrow=block;entryX=0;entryY=0;labelBackgroundColor=none;fontFamily=Verdana;fontSize=12;edgeStyle=elbowEdgeStyle;elbow=vertical;" edge="1" parent="1">
          <mxGeometry relative="1" as="geometry">
            <mxPoint x="154" y="863" as="sourcePoint" />
            <mxPoint x="284" y="863" as="targetPoint" />
          </mxGeometry>
        </mxCell>
        <mxCell id="nqhLTHvcU0vgmD6jR3Rw-42" value="dispatch" style="html=1;verticalAlign=bottom;endArrow=block;entryX=0;entryY=0;labelBackgroundColor=none;fontFamily=Verdana;fontSize=12;edgeStyle=elbowEdgeStyle;elbow=vertical;" edge="1" parent="1">
          <mxGeometry relative="1" as="geometry">
            <mxPoint x="295" y="889" as="sourcePoint" />
            <mxPoint x="445" y="889.0000000000002" as="targetPoint" />
          </mxGeometry>
        </mxCell>
        <mxCell id="nqhLTHvcU0vgmD6jR3Rw-43" value="change information&amp;nbsp;" style="html=1;verticalAlign=bottom;endArrow=open;endSize=8;labelBackgroundColor=none;fontFamily=Verdana;fontSize=12;edgeStyle=elbowEdgeStyle;elbow=vertical;entryX=1.1;entryY=0.405;entryDx=0;entryDy=0;entryPerimeter=0;" edge="1" parent="1">
          <mxGeometry x="-0.0027" relative="1" as="geometry">
            <mxPoint x="152" y="931" as="targetPoint" />
            <Array as="points">
              <mxPoint x="366" y="931.8" />
              <mxPoint x="396" y="931.8" />
            </Array>
            <mxPoint x="446" y="931" as="sourcePoint" />
            <mxPoint as="offset" />
          </mxGeometry>
        </mxCell>
        <mxCell id="nqhLTHvcU0vgmD6jR3Rw-44" value="" style="html=1;points=[];perimeter=orthogonalPerimeter;rounded=0;shadow=0;comic=0;labelBackgroundColor=none;strokeWidth=1;fontFamily=Verdana;fontSize=12;align=center;" vertex="1" parent="1">
          <mxGeometry x="286" y="942" width="10" height="71" as="geometry" />
        </mxCell>
        <mxCell id="nqhLTHvcU0vgmD6jR3Rw-45" value="Contact&amp;nbsp;" style="html=1;verticalAlign=bottom;endArrow=block;entryX=0;entryY=0;labelBackgroundColor=none;fontFamily=Verdana;fontSize=12;edgeStyle=elbowEdgeStyle;elbow=vertical;" edge="1" parent="1">
          <mxGeometry relative="1" as="geometry">
            <mxPoint x="155" y="963" as="sourcePoint" />
            <mxPoint x="285" y="963" as="targetPoint" />
          </mxGeometry>
        </mxCell>
        <mxCell id="nqhLTHvcU0vgmD6jR3Rw-46" value="dispatch" style="html=1;verticalAlign=bottom;endArrow=block;entryX=0;entryY=0;labelBackgroundColor=none;fontFamily=Verdana;fontSize=12;edgeStyle=elbowEdgeStyle;elbow=vertical;" edge="1" parent="1">
          <mxGeometry relative="1" as="geometry">
            <mxPoint x="296" y="989" as="sourcePoint" />
            <mxPoint x="446" y="989.0000000000002" as="targetPoint" />
          </mxGeometry>
        </mxCell>
        <mxCell id="nqhLTHvcU0vgmD6jR3Rw-47" value="success modal" style="html=1;verticalAlign=bottom;endArrow=open;endSize=8;labelBackgroundColor=none;fontFamily=Verdana;fontSize=12;edgeStyle=elbowEdgeStyle;elbow=vertical;entryX=1.1;entryY=0.405;entryDx=0;entryDy=0;entryPerimeter=0;" edge="1" parent="1">
          <mxGeometry x="-0.0027" relative="1" as="geometry">
            <mxPoint x="153" y="1031" as="targetPoint" />
            <Array as="points">
              <mxPoint x="367" y="1031.8" />
              <mxPoint x="397" y="1031.8" />
            </Array>
            <mxPoint x="447" y="1031" as="sourcePoint" />
            <mxPoint as="offset" />
          </mxGeometry>
        </mxCell>
        <mxCell id="nqhLTHvcU0vgmD6jR3Rw-48" value="" style="html=1;points=[];perimeter=orthogonalPerimeter;rounded=0;shadow=0;comic=0;labelBackgroundColor=none;strokeWidth=1;fontFamily=Verdana;fontSize=12;align=center;" vertex="1" parent="1">
          <mxGeometry x="286" y="1039" width="10" height="71" as="geometry" />
        </mxCell>
        <mxCell id="nqhLTHvcU0vgmD6jR3Rw-49" value="Sign out" style="html=1;verticalAlign=bottom;endArrow=block;entryX=0;entryY=0;labelBackgroundColor=none;fontFamily=Verdana;fontSize=12;edgeStyle=elbowEdgeStyle;elbow=vertical;" edge="1" parent="1">
          <mxGeometry relative="1" as="geometry">
            <mxPoint x="155" y="1060" as="sourcePoint" />
            <mxPoint x="285" y="1060" as="targetPoint" />
          </mxGeometry>
        </mxCell>
        <mxCell id="nqhLTHvcU0vgmD6jR3Rw-50" value="dispatch" style="html=1;verticalAlign=bottom;endArrow=block;entryX=0;entryY=0;labelBackgroundColor=none;fontFamily=Verdana;fontSize=12;edgeStyle=elbowEdgeStyle;elbow=vertical;" edge="1" parent="1">
          <mxGeometry relative="1" as="geometry">
            <mxPoint x="296" y="1086" as="sourcePoint" />
            <mxPoint x="446" y="1086.0000000000002" as="targetPoint" />
          </mxGeometry>
        </mxCell>
        <mxCell id="nqhLTHvcU0vgmD6jR3Rw-51" value="redirected to landing page&amp;nbsp;" style="html=1;verticalAlign=bottom;endArrow=open;endSize=8;labelBackgroundColor=none;fontFamily=Verdana;fontSize=12;edgeStyle=elbowEdgeStyle;elbow=vertical;entryX=1.1;entryY=0.405;entryDx=0;entryDy=0;entryPerimeter=0;" edge="1" parent="1">
          <mxGeometry x="-0.0027" relative="1" as="geometry">
            <mxPoint x="153" y="1128" as="targetPoint" />
            <Array as="points">
              <mxPoint x="367" y="1128.8" />
              <mxPoint x="397" y="1128.8" />
            </Array>
            <mxPoint x="447" y="1128" as="sourcePoint" />
            <mxPoint as="offset" />
          </mxGeometry>
        </mxCell>
      </root>
    </mxGraphModel>
  </diagram>
</mxfile>
